<mxfile host="Electron" modified="2023-07-31T14:22:22.364Z" agent="Mozilla/5.0 (Windows NT 10.0; Win64; x64) AppleWebKit/537.36 (KHTML, like Gecko) draw.io/21.6.5 Chrome/114.0.5735.243 Electron/25.3.1 Safari/537.36" etag="dyErUOjStWrIRBYsVAV6" version="21.6.5" type="device">
  <diagram name="Page-1" id="5SvmHuKXJBpUvMMgy40t">
    <mxGraphModel dx="880" dy="511" grid="1" gridSize="10" guides="1" tooltips="1" connect="1" arrows="1" fold="1" page="1" pageScale="1" pageWidth="1169" pageHeight="827" math="0" shadow="0">
      <root>
        <mxCell id="0" />
        <mxCell id="1" parent="0" />
        <mxCell id="BV5hf1cZSZyRzrNl-DUj-1" value="Purchase" style="html=1;whiteSpace=wrap;" vertex="1" parent="1">
          <mxGeometry width="110" height="50" as="geometry" />
        </mxCell>
        <mxCell id="BV5hf1cZSZyRzrNl-DUj-4" style="edgeStyle=orthogonalEdgeStyle;rounded=0;orthogonalLoop=1;jettySize=auto;html=1;exitX=0;exitY=0.5;exitDx=0;exitDy=0;entryX=1;entryY=0.5;entryDx=0;entryDy=0;endArrow=openThin;endFill=0;" edge="1" parent="1" source="BV5hf1cZSZyRzrNl-DUj-2" target="BV5hf1cZSZyRzrNl-DUj-1">
          <mxGeometry relative="1" as="geometry" />
        </mxCell>
        <mxCell id="BV5hf1cZSZyRzrNl-DUj-7" value="purchase" style="edgeLabel;html=1;align=center;verticalAlign=middle;resizable=0;points=[];" vertex="1" connectable="0" parent="BV5hf1cZSZyRzrNl-DUj-4">
          <mxGeometry x="0.6667" y="-2" relative="1" as="geometry">
            <mxPoint x="13" y="-13" as="offset" />
          </mxGeometry>
        </mxCell>
        <mxCell id="BV5hf1cZSZyRzrNl-DUj-8" value="*" style="edgeLabel;html=1;align=center;verticalAlign=middle;resizable=0;points=[];" vertex="1" connectable="0" parent="BV5hf1cZSZyRzrNl-DUj-4">
          <mxGeometry x="0.8211" y="1" relative="1" as="geometry">
            <mxPoint x="-5" y="11" as="offset" />
          </mxGeometry>
        </mxCell>
        <mxCell id="BV5hf1cZSZyRzrNl-DUj-9" value="{ordered,&lt;br&gt;unique}" style="edgeLabel;html=1;align=center;verticalAlign=middle;resizable=0;points=[];" vertex="1" connectable="0" parent="BV5hf1cZSZyRzrNl-DUj-4">
          <mxGeometry x="0.5789" y="1" relative="1" as="geometry">
            <mxPoint x="11" y="15" as="offset" />
          </mxGeometry>
        </mxCell>
        <mxCell id="BV5hf1cZSZyRzrNl-DUj-5" style="edgeStyle=orthogonalEdgeStyle;rounded=0;orthogonalLoop=1;jettySize=auto;html=1;exitX=1;exitY=0.5;exitDx=0;exitDy=0;entryX=0;entryY=0.5;entryDx=0;entryDy=0;endArrow=openThin;endFill=0;" edge="1" parent="1" source="BV5hf1cZSZyRzrNl-DUj-2" target="BV5hf1cZSZyRzrNl-DUj-3">
          <mxGeometry relative="1" as="geometry" />
        </mxCell>
        <mxCell id="BV5hf1cZSZyRzrNl-DUj-10" value="account" style="edgeLabel;html=1;align=center;verticalAlign=middle;resizable=0;points=[];" vertex="1" connectable="0" parent="BV5hf1cZSZyRzrNl-DUj-5">
          <mxGeometry x="0.4" y="2" relative="1" as="geometry">
            <mxPoint x="2" y="-9" as="offset" />
          </mxGeometry>
        </mxCell>
        <mxCell id="BV5hf1cZSZyRzrNl-DUj-11" value="{unique}" style="edgeLabel;html=1;align=center;verticalAlign=middle;resizable=0;points=[];" vertex="1" connectable="0" parent="BV5hf1cZSZyRzrNl-DUj-5">
          <mxGeometry x="0.06" y="-2" relative="1" as="geometry">
            <mxPoint x="-2" y="7" as="offset" />
          </mxGeometry>
        </mxCell>
        <mxCell id="BV5hf1cZSZyRzrNl-DUj-12" value="0..5" style="edgeLabel;html=1;align=center;verticalAlign=middle;resizable=0;points=[];" vertex="1" connectable="0" parent="BV5hf1cZSZyRzrNl-DUj-5">
          <mxGeometry x="0.64" y="-2" relative="1" as="geometry">
            <mxPoint x="5" y="16" as="offset" />
          </mxGeometry>
        </mxCell>
        <mxCell id="BV5hf1cZSZyRzrNl-DUj-2" value="Customer" style="html=1;whiteSpace=wrap;" vertex="1" parent="1">
          <mxGeometry x="220" width="110" height="50" as="geometry" />
        </mxCell>
        <mxCell id="BV5hf1cZSZyRzrNl-DUj-3" value="Account" style="html=1;whiteSpace=wrap;" vertex="1" parent="1">
          <mxGeometry x="430" width="110" height="50" as="geometry" />
        </mxCell>
      </root>
    </mxGraphModel>
  </diagram>
</mxfile>
